<?xml version="1.0" encoding="utf-8"?>
<!-- Generator: Adobe Illustrator 28.1.0, SVG Export Plug-In . SVG Version: 6.00 Build 0)  -->
<svg version="1.1" id="Layer_1" xmlns="http://www.w3.org/2000/svg" xmlns:xlink="http://www.w3.org/1999/xlink" x="0px" y="0px"
	 viewBox="0 0 272.7 57.3" style="enable-background:new 0 0 272.7 57.3;" xml:space="preserve">
<style type="text/css">
	.st0{fill:#FFFFFF;}
	.st1{opacity:0.62;}
</style>
<path d="M15.6,6v48H0V6H15.6z M0,6l48.1-3.5v13.5L0,21.3V6z M29.4,41.1l-9.3-12.6l28-18.7v16.6L29.4,41.1z"/>
<path d="M54.8,6v15.3l47.2-5.5V2.6L54.8,6z M90.6,28.3l-16.4,0.3l20.8,27.4l12-8.8L90.6,28.3z M70.4,6H54.8v48h15.6V6z M82,38.9
	L102,24.4V7.6L74.2,28.5L82,38.9z"/>
<path d="M135.8,40.5c-7.3,0-12.4-5-12.4-12.5c0-7,5.1-12.1,12.4-12.1c7.1,0,12.1,5.1,12.1,12.1C147.9,35.5,142.9,40.5,135.8,40.5z
	 M135.7,55.5c15.7,0,27.2-11.5,27.2-27.2S151.5,1.1,135.7,1.1c-15.8,0-27.2,11.4-27.2,27.2S119.9,55.5,135.7,55.5z"/>
<path d="M245.6,40.5c-7.3,0-12.4-5-12.4-12.5c0-7,5.1-12.1,12.4-12.1c7.1,0,12.1,5.1,12.1,12.1C257.8,35.5,252.7,40.5,245.6,40.5z
	 M245.6,55.5c15.7,0,27.2-11.5,27.2-27.2S261.3,1.1,245.6,1.1c-15.8,0-27.2,11.4-27.2,27.2S229.7,55.5,245.6,55.5z"/>
<path d="M215.1,18.9V2.7l-48.3,3.1v16L215.1,18.9z M199.3,6.2h-16.7v47.6h16.7V6.2z"/>
</svg>
