<?xml version="1.0" encoding="utf-8"?>
<!-- Generator: Adobe Illustrator 28.1.0, SVG Export Plug-In . SVG Version: 6.00 Build 0)  -->
<svg version="1.1" id="Layer_1" xmlns="http://www.w3.org/2000/svg" xmlns:xlink="http://www.w3.org/1999/xlink" x="0px" y="0px"
	 viewBox="0 0 33.9 206" style="enable-background:new 0 0 33.9 206;" xml:space="preserve">
<style type="text/css">
	.st0{fill:#FFFFFF;}
	.st1{opacity:0.62;}
</style>
<g>
	<g>
		<g>
			<path class="st0" d="M21.6,184.7v1.2h-3v3h3v1.2h-6.9v-1.2h2.8v-3h-2.8v-1.2H21.6z"/>
		</g>
		<g>
			<path class="st0" d="M14.7,182.1h6.9v1.2h-6.9V182.1z"/>
		</g>
		<g>
			<path class="st0" d="M21.6,177.1v1.4l-6.9,2.5v-1.3l5.3-1.9l-5.3-1.8v-1.3L21.6,177.1z"/>
		</g>
		<g>
			<path class="st0" d="M21.2,173c-0.3,0.5-0.7,0.9-1.2,1.2c-0.5,0.3-1.1,0.4-1.8,0.4c-0.7,0-1.3-0.1-1.8-0.4
				c-0.5-0.3-0.9-0.7-1.2-1.2c-0.3-0.5-0.4-1.1-0.4-1.8c0-0.5,0.1-0.9,0.3-1.3c0.2-0.4,0.4-0.8,0.7-1.1l0.8,0.8
				c-0.2,0.2-0.4,0.4-0.6,0.7c-0.1,0.3-0.2,0.6-0.2,0.9c0,0.4,0.1,0.8,0.3,1.1c0.2,0.3,0.5,0.6,0.9,0.8c0.4,0.2,0.8,0.3,1.3,0.3
				c0.5,0,0.9-0.1,1.3-0.3c0.4-0.2,0.7-0.4,0.9-0.8c0.2-0.3,0.3-0.7,0.3-1.1c0-0.3-0.1-0.6-0.2-0.9s-0.3-0.5-0.5-0.7l0.8-0.8
				c0.3,0.3,0.6,0.7,0.8,1.1s0.3,0.8,0.2,1.3C21.7,171.9,21.5,172.5,21.2,173z"/>
		</g>
		<g>
			<path class="st0" d="M15.2,163.9c0.3-0.5,0.7-0.9,1.2-1.2c0.5-0.3,1.1-0.4,1.8-0.4c0.7,0,1.3,0.1,1.8,0.4
				c0.5,0.3,0.9,0.7,1.2,1.2c0.3,0.5,0.4,1.1,0.4,1.8v2.1h-6.9v-2.1C14.7,165,14.9,164.4,15.2,163.9z M20.3,164.5
				c-0.2-0.3-0.5-0.6-0.8-0.8c-0.4-0.2-0.8-0.3-1.3-0.3c-0.5,0-0.9,0.1-1.3,0.3c-0.4,0.2-0.6,0.4-0.8,0.8c-0.2,0.3-0.3,0.7-0.3,1.2
				l0,0.9h4.8l0-0.9C20.6,165.2,20.5,164.8,20.3,164.5z"/>
		</g>
		<g>
			<path class="st0" d="M14.7,157.6h6.9v1.2h-6.9V157.6z"/>
		</g>
		<g>
			<path class="st0" d="M18.4,153.4c-0.2,0.2-0.3,0.4-0.3,0.7c0,0.2,0,0.3,0.1,0.5c0.1,0.1,0.2,0.3,0.4,0.3c0.2,0.1,0.4,0.1,0.6,0.1
				h2.4v1.2h-4.5V155H18l0,0.1c-0.3-0.1-0.5-0.3-0.6-0.5s-0.2-0.5-0.2-0.8c0-0.3,0.1-0.6,0.2-0.8c0.1-0.3,0.3-0.5,0.7-0.7
				c0.3-0.2,0.7-0.3,1.2-0.3h2.4v1.2h-2.4C18.9,153.2,18.6,153.3,18.4,153.4z"/>
		</g>
		<g>
			<path class="st0" d="M17.1,151.2v-3.1h1v3.1H17.1z M15.5,150.3v-1.2h6.1v1.2H15.5z"/>
		</g>
		<g>
			<path class="st0" d="M21.3,146.5c-0.2,0.3-0.5,0.6-0.8,0.8c-0.3,0.2-0.7,0.3-1.2,0.3c-0.4,0-0.8-0.1-1.2-0.3
				c-0.3-0.2-0.6-0.4-0.8-0.8c-0.2-0.3-0.3-0.7-0.3-1.1c0-0.6,0.1-1,0.4-1.3c0.3-0.3,0.5-0.5,0.8-0.6l0,0c0.2-0.1,0.5-0.2,0.7-0.2
				c0.2,0,0.5,0,0.7,0h0.1v3.1c0.2,0,0.3-0.1,0.4-0.2c0.1-0.1,0.2-0.2,0.3-0.4c0.1-0.1,0.1-0.3,0.1-0.5c0-0.2,0-0.4-0.1-0.6
				c-0.1-0.2-0.2-0.3-0.3-0.3l0,0l0.4-1c0.3,0.1,0.5,0.3,0.7,0.7c0.2,0.3,0.3,0.7,0.3,1.3C21.6,145.8,21.5,146.2,21.3,146.5z
				 M18.5,144.6c-0.1,0.1-0.2,0.2-0.3,0.3c-0.1,0.1-0.1,0.3-0.1,0.5c0,0.3,0.1,0.5,0.2,0.7c0.2,0.2,0.4,0.3,0.6,0.4v-2
				C18.8,144.4,18.7,144.5,18.5,144.6z"/>
		</g>
		<g>
			<path class="st0" d="M17.5,140.9c-0.1-0.2-0.2-0.3-0.3-0.5c-0.1-0.2-0.1-0.4-0.1-0.5h1.1c0,0.2,0,0.5,0.2,0.7s0.3,0.3,0.5,0.4
				c0.2,0.1,0.4,0.2,0.6,0.2h2.2v1.2h-4.5v-1.2h0.9l0,0.1C17.8,141.2,17.7,141.1,17.5,140.9z"/>
		</g>
		<g>
			<path class="st0" d="M21.4,138.4c-0.2,0.3-0.5,0.6-0.8,0.7c-0.3,0.2-0.7,0.3-1.2,0.3c-0.4,0-0.8-0.1-1.2-0.3
				c-0.3-0.2-0.6-0.4-0.8-0.7c-0.2-0.3-0.3-0.7-0.3-1.1c0-0.2,0.1-0.5,0.2-0.7s0.3-0.4,0.5-0.6l0.1,0h-0.7v-1.2h4.5v1.2h-0.7l0.1,0
				c0.2,0.1,0.3,0.2,0.4,0.4c0.1,0.1,0.2,0.3,0.2,0.4c0,0.2,0.1,0.3,0.1,0.4C21.7,137.7,21.6,138.1,21.4,138.4z M20.5,136.6
				c-0.1-0.2-0.3-0.3-0.5-0.4c-0.2-0.1-0.4-0.1-0.6-0.1c-0.2,0-0.5,0-0.6,0.1c-0.2,0.1-0.3,0.2-0.5,0.4s-0.2,0.3-0.2,0.5
				c0,0.2,0.1,0.4,0.2,0.6c0.1,0.2,0.2,0.3,0.4,0.4c0.2,0.1,0.4,0.1,0.7,0.1c0.3,0,0.5,0,0.7-0.1s0.3-0.2,0.4-0.4
				c0.1-0.2,0.2-0.3,0.2-0.6C20.7,137,20.6,136.8,20.5,136.6z"/>
		</g>
		<g>
			<path class="st0" d="M20.4,131.4c-0.1-0.2-0.2-0.3-0.3-0.4l0.8-0.8c0.2,0.2,0.4,0.4,0.5,0.8c0.1,0.3,0.2,0.6,0.2,0.9
				c0,0.4-0.1,0.8-0.3,1.2c-0.2,0.3-0.5,0.6-0.8,0.8c-0.3,0.2-0.7,0.3-1.2,0.3c-0.4,0-0.8-0.1-1.2-0.3s-0.6-0.5-0.8-0.8
				c-0.2-0.3-0.3-0.7-0.3-1.2c0-0.3,0.1-0.6,0.2-0.9c0.1-0.3,0.3-0.5,0.5-0.7l0.8,0.8c-0.1,0.1-0.2,0.3-0.3,0.4
				c-0.1,0.2-0.1,0.3-0.1,0.5c0,0.2,0,0.4,0.1,0.6c0.1,0.2,0.2,0.3,0.4,0.4c0.2,0.1,0.4,0.1,0.6,0.1c0.2,0,0.4,0,0.6-0.1
				s0.3-0.2,0.4-0.4s0.1-0.3,0.1-0.6C20.5,131.7,20.5,131.5,20.4,131.4z"/>
		</g>
		<g>
			<path class="st0" d="M17.1,129.6v-3.1h1v3.1H17.1z M15.5,128.8v-1.2h6.1v1.2H15.5z"/>
		</g>
		<g>
			<path class="st0" d="M15,124.4c0.1-0.1,0.3-0.2,0.5-0.2s0.3,0.1,0.5,0.2c0.1,0.1,0.2,0.3,0.2,0.5c0,0.2-0.1,0.3-0.2,0.4
				c-0.1,0.1-0.3,0.2-0.5,0.2s-0.3-0.1-0.5-0.2c-0.1-0.1-0.2-0.3-0.2-0.4C14.9,124.7,14.9,124.5,15,124.4z M17.1,124.3h4.5v1.2h-4.5
				V124.3z"/>
		</g>
		<g>
			<path class="st0" d="M17.4,119.8c0.2-0.3,0.5-0.6,0.8-0.8c0.3-0.2,0.7-0.3,1.2-0.3c0.4,0,0.8,0.1,1.2,0.3
				c0.3,0.2,0.6,0.4,0.8,0.8c0.2,0.3,0.3,0.7,0.3,1.1s-0.1,0.8-0.3,1.1c-0.2,0.3-0.5,0.6-0.8,0.8c-0.3,0.2-0.7,0.3-1.2,0.3
				c-0.4,0-0.8-0.1-1.2-0.3c-0.3-0.2-0.6-0.4-0.8-0.8s-0.3-0.7-0.3-1.1S17.2,120.1,17.4,119.8z M20.5,120.4
				c-0.1-0.2-0.2-0.3-0.4-0.3s-0.4-0.1-0.7-0.1c-0.3,0-0.5,0-0.7,0.1c-0.2,0.1-0.3,0.2-0.4,0.3c-0.1,0.2-0.2,0.3-0.2,0.5
				c0,0.2,0.1,0.4,0.2,0.5c0.1,0.2,0.3,0.3,0.4,0.3c0.2,0.1,0.4,0.1,0.7,0.1c0.3,0,0.5,0,0.7-0.1c0.2-0.1,0.3-0.2,0.4-0.3
				c0.1-0.2,0.2-0.3,0.2-0.5C20.6,120.7,20.6,120.5,20.5,120.4z"/>
		</g>
		<g>
			<path class="st0" d="M18.4,115c-0.2,0.2-0.3,0.4-0.3,0.7c0,0.2,0,0.3,0.1,0.5c0.1,0.1,0.2,0.3,0.4,0.3s0.4,0.1,0.6,0.1h2.4v1.2
				h-4.5v-1.2H18l0,0.1c-0.3-0.1-0.5-0.3-0.6-0.5c-0.2-0.2-0.2-0.5-0.2-0.8c0-0.3,0.1-0.6,0.2-0.8c0.1-0.3,0.3-0.5,0.7-0.7
				c0.3-0.2,0.7-0.3,1.2-0.3h2.4v1.2h-2.4C18.9,114.8,18.6,114.8,18.4,115z"/>
		</g>
		<g>
			<path class="st0" d="M15.2,106.3c0.3-0.5,0.7-0.9,1.2-1.2c0.5-0.3,1.1-0.4,1.8-0.4c0.7,0,1.3,0.1,1.8,0.4
				c0.5,0.3,0.9,0.7,1.2,1.2c0.3,0.5,0.4,1.1,0.4,1.8v2.1h-6.9v-2.1C14.7,107.4,14.9,106.8,15.2,106.3z M20.3,106.9
				c-0.2-0.3-0.5-0.6-0.8-0.8c-0.4-0.2-0.8-0.3-1.3-0.3c-0.5,0-0.9,0.1-1.3,0.3s-0.6,0.5-0.8,0.8c-0.2,0.3-0.3,0.7-0.3,1.2l0,0.9
				h4.8l0-0.9C20.6,107.7,20.5,107.3,20.3,106.9z"/>
		</g>
		<g>
			<path class="st0" d="M21.3,102.9c-0.2,0.3-0.5,0.6-0.8,0.8c-0.3,0.2-0.7,0.3-1.2,0.3c-0.4,0-0.8-0.1-1.2-0.3s-0.6-0.4-0.8-0.8
				c-0.2-0.3-0.3-0.7-0.3-1.1c0-0.6,0.1-1,0.4-1.3c0.3-0.3,0.5-0.5,0.8-0.6l0,0c0.2-0.1,0.5-0.2,0.7-0.2c0.2,0,0.5,0,0.7,0h0.1v3.1
				c0.2,0,0.3-0.1,0.4-0.2c0.1-0.1,0.2-0.2,0.3-0.4s0.1-0.3,0.1-0.5c0-0.2,0-0.4-0.1-0.6c-0.1-0.2-0.2-0.3-0.3-0.3l0,0l0.4-1
				c0.3,0.1,0.5,0.3,0.7,0.7c0.2,0.3,0.3,0.7,0.3,1.2C21.6,102.2,21.5,102.5,21.3,102.9z M18.5,101c-0.1,0.1-0.2,0.2-0.3,0.3
				c-0.1,0.1-0.1,0.3-0.1,0.5c0,0.3,0.1,0.5,0.2,0.7s0.4,0.3,0.6,0.4v-2C18.8,100.8,18.7,100.9,18.5,101z"/>
		</g>
		<g>
			<path class="st0" d="M20.5,97.5c0.1-0.2,0.2-0.3,0.2-0.5c0-0.2,0-0.3-0.1-0.5s-0.2-0.2-0.3-0.2c-0.1,0-0.2,0.1-0.2,0.2
				c-0.1,0.1-0.1,0.3-0.2,0.5c0,0,0,0,0,0.1l0,0c-0.1,0.3-0.2,0.5-0.3,0.7s-0.2,0.4-0.4,0.5s-0.4,0.2-0.7,0.2
				c-0.3,0-0.5-0.1-0.7-0.2c-0.2-0.1-0.3-0.3-0.5-0.6c-0.1-0.3-0.2-0.5-0.2-0.9c0-0.2,0-0.4,0.1-0.6s0.2-0.4,0.4-0.6
				s0.4-0.3,0.6-0.4l0.4,1c-0.2,0.1-0.3,0.2-0.4,0.3c-0.1,0.1-0.1,0.2-0.1,0.4c0,0.2,0,0.3,0.1,0.4c0.1,0.1,0.1,0.1,0.2,0.1
				c0.1,0,0.1-0.1,0.2-0.2c0.1-0.1,0.1-0.3,0.2-0.5l0-0.1c0,0,0,0,0-0.1c0.1-0.3,0.2-0.5,0.3-0.7c0.1-0.2,0.2-0.4,0.4-0.5
				c0.2-0.1,0.4-0.2,0.6-0.2c0.3,0,0.5,0.1,0.7,0.2c0.2,0.1,0.4,0.4,0.5,0.6c0.1,0.3,0.2,0.6,0.2,1c0,0.2,0,0.5-0.1,0.7
				s-0.2,0.5-0.4,0.6s-0.4,0.3-0.6,0.4L20,97.9C20.2,97.8,20.3,97.7,20.5,97.5z"/>
		</g>
		<g>
			<path class="st0" d="M15,92.9c0.1-0.1,0.3-0.2,0.5-0.2s0.3,0.1,0.5,0.2c0.1,0.1,0.2,0.3,0.2,0.5c0,0.2-0.1,0.3-0.2,0.5
				c-0.1,0.1-0.3,0.2-0.5,0.2s-0.3-0.1-0.5-0.2c-0.1-0.1-0.2-0.3-0.2-0.5C14.9,93.2,14.9,93,15,92.9z M17.1,92.7h4.5v1.2h-4.5V92.7z
				"/>
		</g>
		<g>
			<path class="st0" d="M22.4,87.4c0.4,0.2,0.6,0.5,0.8,0.8c0.2,0.3,0.3,0.7,0.3,1.2c0,0.4-0.1,0.8-0.3,1.1
				c-0.2,0.4-0.4,0.6-0.8,0.8l-0.6-0.9c0.2-0.2,0.4-0.3,0.5-0.5c0.1-0.1,0.1-0.3,0.1-0.6c0-0.3-0.1-0.6-0.3-0.8
				c-0.2-0.2-0.5-0.3-0.8-0.3H21l0.1,0c0.2,0.2,0.3,0.4,0.4,0.6c0.1,0.2,0.1,0.4,0.1,0.6c0,0.4-0.1,0.8-0.3,1.1s-0.5,0.6-0.8,0.7
				c-0.3,0.2-0.7,0.3-1.2,0.3c-0.4,0-0.8-0.1-1.2-0.3c-0.3-0.2-0.6-0.4-0.8-0.7c-0.2-0.3-0.3-0.7-0.3-1.1c0-0.2,0.1-0.4,0.2-0.7
				c0.1-0.2,0.3-0.4,0.5-0.6l0.1,0h-0.7v-1.2h4.1C21.7,87.1,22.1,87.2,22.4,87.4z M20.5,88.8c-0.1-0.2-0.3-0.3-0.5-0.4
				c-0.2-0.1-0.4-0.1-0.6-0.1c-0.2,0-0.4,0-0.6,0.1c-0.2,0.1-0.3,0.2-0.5,0.4s-0.2,0.4-0.2,0.6c0,0.2,0.1,0.4,0.2,0.5
				c0.1,0.2,0.2,0.3,0.4,0.4c0.2,0.1,0.4,0.1,0.7,0.1c0.3,0,0.5,0,0.7-0.1c0.2-0.1,0.3-0.2,0.4-0.4c0.1-0.2,0.2-0.3,0.2-0.5
				C20.6,89.2,20.6,89,20.5,88.8z"/>
		</g>
		<g>
			<path class="st0" d="M18.4,83c-0.2,0.2-0.3,0.4-0.3,0.7c0,0.2,0,0.3,0.1,0.5c0.1,0.1,0.2,0.3,0.4,0.3c0.2,0.1,0.4,0.1,0.6,0.1
				h2.4v1.2h-4.5v-1.2H18l0,0.1c-0.3-0.1-0.5-0.3-0.6-0.5s-0.2-0.5-0.2-0.8c0-0.3,0.1-0.6,0.2-0.8c0.1-0.3,0.3-0.5,0.7-0.7
				c0.3-0.2,0.7-0.3,1.2-0.3h2.4v1.2h-2.4C18.9,82.8,18.6,82.9,18.4,83z"/>
		</g>
		<g>
			<path class="st0" d="M18.6,71.6c0.6,0,1.2,0.1,1.6,0.4c0.5,0.3,0.8,0.6,1.1,1.1c0.2,0.5,0.4,1.1,0.4,1.7c0,0.7-0.1,1.3-0.4,1.8
				c-0.3,0.5-0.7,0.9-1.2,1.2c-0.5,0.3-1.1,0.4-1.8,0.4s-1.3-0.1-1.8-0.4c-0.5-0.3-0.9-0.7-1.2-1.2c-0.3-0.5-0.4-1.1-0.4-1.8
				c0-0.7,0.2-1.3,0.5-1.8c0.3-0.5,0.7-0.9,1.2-1.1l0.6,1c-0.3,0.2-0.6,0.4-0.8,0.8c-0.2,0.3-0.3,0.7-0.3,1.2c0,0.4,0.1,0.8,0.3,1.2
				c0.2,0.3,0.5,0.6,0.9,0.8c0.4,0.2,0.8,0.3,1.3,0.3c0.5,0,0.9-0.1,1.3-0.3s0.7-0.5,0.9-0.8c0.2-0.3,0.3-0.7,0.3-1.2
				c0-0.4-0.1-0.7-0.2-1s-0.3-0.6-0.6-0.7s-0.6-0.3-1-0.3v1.9h-1v-3.1H18.6z"/>
		</g>
		<g>
			<path class="st0" d="M17.5,69.2c-0.1-0.2-0.2-0.3-0.3-0.5c-0.1-0.2-0.1-0.4-0.1-0.5h1.1c0,0.2,0,0.5,0.2,0.7s0.3,0.3,0.5,0.4
				c0.2,0.1,0.4,0.2,0.6,0.2h2.2v1.2h-4.5v-1.2h0.9l0,0.1C17.8,69.5,17.7,69.4,17.5,69.2z"/>
		</g>
		<g>
			<path class="st0" d="M17.4,64.4c0.2-0.3,0.5-0.6,0.8-0.8c0.3-0.2,0.7-0.3,1.2-0.3c0.4,0,0.8,0.1,1.2,0.3c0.3,0.2,0.6,0.4,0.8,0.8
				c0.2,0.3,0.3,0.7,0.3,1.1c0,0.4-0.1,0.8-0.3,1.1c-0.2,0.3-0.5,0.6-0.8,0.8c-0.3,0.2-0.7,0.3-1.2,0.3c-0.4,0-0.8-0.1-1.2-0.3
				c-0.3-0.2-0.6-0.4-0.8-0.8s-0.3-0.7-0.3-1.1C17.1,65.1,17.2,64.7,17.4,64.4z M20.5,65c-0.1-0.2-0.2-0.3-0.4-0.3s-0.4-0.1-0.7-0.1
				c-0.3,0-0.5,0-0.7,0.1c-0.2,0.1-0.3,0.2-0.4,0.3c-0.1,0.2-0.2,0.3-0.2,0.5c0,0.2,0.1,0.4,0.2,0.5c0.1,0.2,0.3,0.3,0.4,0.3
				c0.2,0.1,0.4,0.1,0.7,0.1c0.3,0,0.5,0,0.7-0.1s0.3-0.2,0.4-0.3c0.1-0.2,0.2-0.3,0.2-0.5C20.6,65.3,20.6,65.1,20.5,65z"/>
		</g>
		<g>
			<path class="st0" d="M20.4,60.8c0.2-0.2,0.3-0.4,0.3-0.7c0-0.2,0-0.3-0.1-0.5c-0.1-0.1-0.2-0.2-0.4-0.3c-0.2-0.1-0.3-0.1-0.6-0.1
				h-2.5v-1.2h4.5v1.2h-0.8l0-0.1c0.3,0.1,0.4,0.3,0.6,0.5s0.2,0.5,0.2,0.8c0,0.4-0.1,0.7-0.2,1c-0.2,0.3-0.4,0.5-0.7,0.7
				c-0.3,0.2-0.6,0.2-1,0.2h-2.5v-1.2h2.5C20,61.1,20.2,61,20.4,60.8z"/>
		</g>
		<g>
			<path class="st0" d="M17.4,53.3c0.2-0.3,0.5-0.6,0.8-0.7c0.3-0.2,0.7-0.3,1.2-0.3c0.4,0,0.8,0.1,1.2,0.3c0.3,0.2,0.6,0.4,0.8,0.7
				c0.2,0.3,0.3,0.7,0.3,1.1c0,0.1,0,0.2-0.1,0.4s-0.1,0.3-0.2,0.5c-0.1,0.2-0.2,0.3-0.4,0.4l-0.2,0h2.7v1.2h-6.4v-1.2h0.8l-0.1,0
				c-0.2-0.2-0.4-0.4-0.5-0.6s-0.2-0.5-0.2-0.6C17.1,54,17.2,53.6,17.4,53.3z M20.5,54c-0.1-0.2-0.2-0.3-0.4-0.4
				c-0.2-0.1-0.4-0.1-0.7-0.1c-0.3,0-0.5,0-0.7,0.1c-0.2,0.1-0.3,0.2-0.4,0.4c-0.1,0.2-0.2,0.3-0.2,0.5c0,0.2,0.1,0.4,0.2,0.6
				c0.1,0.2,0.3,0.3,0.5,0.4c0.2,0.1,0.4,0.1,0.6,0.1c0.2,0,0.4,0,0.6-0.1c0.2-0.1,0.3-0.2,0.5-0.4c0.1-0.2,0.2-0.4,0.2-0.6
				C20.6,54.3,20.6,54.1,20.5,54z"/>
		</g>
		<g>
			<path class="st0" d="M15,45.2c0.2-0.3,0.5-0.6,0.8-0.8c0.3-0.2,0.7-0.3,1.2-0.3c0.4,0,0.8,0.1,1.2,0.3s0.6,0.5,0.8,0.8
				s0.3,0.7,0.3,1.2v1.5h2.4V49h-6.9v-2.7C14.7,45.9,14.8,45.5,15,45.2z M17.8,45.6c-0.2-0.2-0.5-0.3-0.9-0.3
				c-0.3,0-0.6,0.1-0.9,0.3c-0.2,0.2-0.3,0.5-0.3,0.8v1.4h2.4v-1.4C18.2,46,18.1,45.8,17.8,45.6z"/>
		</g>
		<g>
			<path class="st0" d="M21.6,39.2l-2.4,1.6v1h2.4V43h-6.9v-2.8c0-0.4,0.1-0.8,0.3-1.1c0.2-0.3,0.4-0.6,0.8-0.8
				c0.3-0.2,0.7-0.3,1.2-0.3c0.3,0,0.6,0,0.8,0.1c0.3,0.1,0.5,0.2,0.7,0.5c0.2,0.2,0.4,0.5,0.6,0.8l2.6-1.7V39.2z M18,39.8
				c-0.1-0.2-0.2-0.3-0.4-0.4c-0.2-0.1-0.4-0.1-0.7-0.1c-0.3,0-0.5,0-0.7,0.1c-0.2,0.1-0.3,0.2-0.4,0.4c-0.1,0.2-0.1,0.4-0.1,0.6
				v1.4h2.4v-1.4C18.2,40.2,18.1,40,18,39.8z"/>
		</g>
		<g>
			<path class="st0" d="M15.1,32c0.3-0.5,0.7-0.9,1.3-1.2c0.5-0.3,1.1-0.4,1.8-0.4c0.7,0,1.3,0.1,1.8,0.4s0.9,0.7,1.2,1.2
				c0.3,0.5,0.4,1.1,0.4,1.8c0,0.7-0.1,1.3-0.4,1.8c-0.3,0.5-0.7,0.9-1.3,1.2c-0.5,0.3-1.1,0.4-1.8,0.4c-0.7,0-1.3-0.1-1.8-0.4
				c-0.5-0.3-0.9-0.7-1.2-1.2c-0.3-0.5-0.4-1.1-0.4-1.8C14.7,33.1,14.8,32.5,15.1,32z M20.3,32.6c-0.2-0.3-0.5-0.6-0.9-0.8
				s-0.8-0.3-1.3-0.3c-0.5,0-0.9,0.1-1.3,0.3s-0.7,0.5-0.9,0.8c-0.2,0.3-0.3,0.7-0.3,1.2c0,0.5,0.1,0.9,0.3,1.2
				c0.2,0.3,0.5,0.6,0.9,0.8c0.4,0.2,0.8,0.3,1.3,0.3c0.5,0,0.9-0.1,1.3-0.3c0.4-0.2,0.7-0.4,0.9-0.8c0.2-0.3,0.3-0.7,0.3-1.2
				C20.6,33.3,20.5,32.9,20.3,32.6z"/>
		</g>
		<g>
			<path class="st0" d="M15.8,24.8v1.9h5.9v1.2h-5.9v1.9h-1v-5H15.8z"/>
		</g>
		<g>
			<path class="st0" d="M15.1,19.5c0.3-0.5,0.7-0.9,1.3-1.2c0.5-0.3,1.1-0.4,1.8-0.4c0.7,0,1.3,0.1,1.8,0.4c0.5,0.3,0.9,0.7,1.2,1.2
				s0.4,1.1,0.4,1.8c0,0.7-0.1,1.3-0.4,1.8c-0.3,0.5-0.7,0.9-1.3,1.2c-0.5,0.3-1.1,0.4-1.8,0.4c-0.7,0-1.3-0.1-1.8-0.4
				c-0.5-0.3-0.9-0.7-1.2-1.2c-0.3-0.5-0.4-1.1-0.4-1.8C14.7,20.6,14.8,20,15.1,19.5z M20.3,20.1c-0.2-0.3-0.5-0.6-0.9-0.8
				S18.7,19,18.2,19c-0.5,0-0.9,0.1-1.3,0.3s-0.7,0.5-0.9,0.8c-0.2,0.3-0.3,0.7-0.3,1.2c0,0.5,0.1,0.9,0.3,1.2
				c0.2,0.3,0.5,0.6,0.9,0.8s0.8,0.3,1.3,0.3c0.5,0,0.9-0.1,1.3-0.3s0.7-0.4,0.9-0.8c0.2-0.3,0.3-0.7,0.3-1.2
				C20.6,20.8,20.5,20.4,20.3,20.1z"/>
		</g>
	</g>
	<g>
		<g>
			<polygon class="st0" points="23.4,202.9 23.4,193.2 19.4,193.2 19.7,199.1 16.9,193.3 12.6,193.3 17.4,202.9 			"/>
		</g>
	</g>
	<g>
		<g>
			<polygon class="st0" points="13.8,5.3 13.8,15 17.8,15 17.6,9.1 20.4,14.9 24.7,14.9 19.8,5.3 			"/>
		</g>
	</g>
</g>
</svg>
