<?xml version="1.0" encoding="UTF-8"?><svg id="Layer_1" xmlns="http://www.w3.org/2000/svg" viewBox="0 0 107.17 118.7"><path d="M44.55,91.26c3.05-2.7,6.07-5.3,9.07-7.8,7.3-6.3,13.1-11.52,17.4-15.67,4.3-4.15,7.88-8.37,10.73-12.67,2.85-4.3,4.27-8.45,4.27-12.45s-.73-7.12-2.17-9.98c-1.45-2.85-3.43-5.1-5.92-6.75-2.5-1.65-5.45-2.48-8.85-2.48-4,0-7.85,1.28-11.55,3.83-3.7,2.55-6.45,5.83-8.25,9.83l-16.8-7.35c3.2-7.1,8.22-12.95,15.08-17.55,6.85-4.6,14.02-6.9,21.52-6.9,7.1,0,13.4,1.6,18.9,4.8,5.5,3.2,9.8,7.63,12.9,13.27,3.1,5.65,4.65,12.07,4.65,19.27s-1.95,13.78-5.85,20.33c-3.9,6.55-8.6,12.45-14.1,17.7-5.5,5.25-12.65,11.48-21.45,18.68-6.7,5.4-12,9.9-15.9,13.5l-12.3-13.65c2.7-2.6,5.57-5.25,8.62-7.95ZM35.92,99.21h71.25v16.95H37.42l-1.5-16.95Z" style="stroke-width:0px;"/></svg>