<?xml version="1.0" encoding="UTF-8"?><svg id="Layer_1" xmlns="http://www.w3.org/2000/svg" viewBox="0 0 134.85 136.98"><path d="M49.12,90.97c13.45-.45,26.07-1.42,37.87-2.92l1.05,14.7c-12.2,2.1-25,3.48-38.4,4.12-13.4.65-27.55,1.03-42.45,1.12l-1.8-16.35c15.7,0,30.27-.22,43.73-.68ZM70.2,13.05v16.05H12.3V13.05h57.9ZM49.05,51.75v45.9h-19.8v-45.9h19.8ZM82.05,13.05v11.55c0,9.4-.2,17.9-.6,25.5-.4,7.6-1.45,16.3-3.15,26.1l-19.65-1.65c1.5-9.4,2.48-17.8,2.93-25.2.45-7.4.67-15.65.67-24.75v-11.55h19.8ZM112.95-.3v135.15h-19.95V-.3h19.95ZM130.95,54v16.5h-23.7v-16.5h23.7Z" style="stroke-width:0px;"/></svg>