<?xml version="1.0" encoding="UTF-8"?><svg id="Layer_1" xmlns="http://www.w3.org/2000/svg" viewBox="0 0 133.13 137.28"><path d="M73.73,10.65v16.2h-40.35v41.4H13.28V10.65h60.45ZM60.31,59.02c8.35-.55,16.42-1.67,24.23-3.38l1.8,15.9c-7.9,1.8-16.25,3-25.05,3.6-8.8.6-21.05.9-36.75.9h-11.25v-16.2h11.25c15.5,0,27.42-.28,35.77-.83ZM47.63,87.45v37.65h-20.25v-37.65h20.25ZM119.48,117v16.05H27.38v-16.05h92.1ZM114.83.15v97.65h-20.25V.15h20.25ZM132.68,36.75v16.35h-23.55v-16.35h23.55Z" style="stroke-width:0px;"/></svg>