<?xml version="1.0" encoding="UTF-8"?><svg id="Layer_1" xmlns="http://www.w3.org/2000/svg" viewBox="0 0 132.46 145.73"><path d="M56.56,11.71v13.2c0,9.1-1.4,17.65-4.2,25.65-2.8,8-7.05,15-12.75,21s-12.8,10.45-21.3,13.35l-10.35-15.9c7.2-2.6,13.22-6.2,18.07-10.8,4.85-4.6,8.37-9.77,10.58-15.52,2.2-5.75,3.3-11.67,3.3-17.78v-13.2h16.65ZM50.86,93.31v36.15h-20.1v-36.15h20.1ZM124.51,121.21v16.05H30.76v-16.05h93.75ZM60.46,11.71v13.2c0,6.1,1.07,11.88,3.23,17.33,2.15,5.45,5.57,10.3,10.27,14.55,4.7,4.25,10.6,7.53,17.7,9.83l-10.35,16.05c-8.4-2.8-15.35-7.05-20.85-12.75-5.5-5.7-9.6-12.4-12.3-20.1-2.7-7.7-4.05-16-4.05-24.9v-13.2h16.35ZM121.06,4.36v98.4h-20.25V4.36h20.25Z" style="stroke-width:0px;"/></svg>