<?xml version="1.0" encoding="UTF-8"?><svg id="Layer_1" xmlns="http://www.w3.org/2000/svg" viewBox="0 0 149.06 137.28"><path d="M60.56,11.85v22.2c0,10.9-1.03,21.15-3.08,30.75-2.05,9.6-5.33,18.22-9.83,25.88s-10.2,13.63-17.1,17.93l-12.3-15.15c6.4-3.9,11.6-8.97,15.6-15.22,4-6.25,6.85-13.1,8.55-20.55,1.7-7.45,2.55-15.32,2.55-23.62V11.85h15.6ZM64.46,11.85v21.45c0,8,.75,15.5,2.25,22.5,1.5,7,3.97,13.48,7.42,19.43s8.12,10.82,14.02,14.62l-10.8,15.75c-6.8-4.2-12.3-10.03-16.5-17.48-4.2-7.45-7.18-15.8-8.92-25.05-1.75-9.25-2.62-19.17-2.62-29.78V11.85h15.15ZM96.11,45.3v16.35h-21.9v-16.35h21.9ZM109.31,2.25v126.9h-18.75V2.25h18.75ZM137.21,0v135.15h-19.2V0h19.2Z" style="stroke-width:0px;"/></svg>