<?xml version="1.0" encoding="UTF-8"?><svg id="Layer_1" xmlns="http://www.w3.org/2000/svg" viewBox="0 0 137.15 145.73"><path d="M.15,82.06v15.75h-122.4v-15.75H.15ZM-88.5,9.61v15h54.45v-15H-14.25v59.85h-94.2V9.61h19.95ZM-88.5,53.56h54.45v-13.2h-54.45v13.2ZM-51.45,90.16v49.5h-20.1v-49.5h20.1Z" style="stroke-width:0px;"/><path d="M54.67,62.86c13.75-.5,26.93-1.5,39.53-3l1.2,14.25c-12.9,2.2-26.23,3.67-39.98,4.42-13.75.75-28.63,1.18-44.62,1.28l-2.55-15.9c17.2-.2,32.67-.55,46.42-1.05ZM69.15,11.86c5.2,2,9.22,4.85,12.08,8.55,2.85,3.7,4.27,7.95,4.27,12.75s-1.42,8.9-4.27,12.6c-2.85,3.7-6.88,6.52-12.08,8.48-5.2,1.95-11.05,2.92-17.55,2.92s-12.45-1-17.55-3c-5.1-2-9.07-4.82-11.92-8.47-2.85-3.65-4.27-7.82-4.27-12.53s1.42-9.05,4.27-12.75c2.85-3.7,6.85-6.55,12-8.55,5.15-2,10.97-3,17.48-3s12.35,1,17.55,3ZM45.15,97.06v28.35h-20.25v-28.35h20.25ZM125.85,121.21v16.05H24.9v-16.05h100.95ZM41.03,26.04c-2.65,1.65-3.98,4.03-3.98,7.12s1.32,5.33,3.98,6.98c2.65,1.65,6.22,2.48,10.72,2.48s7.92-.83,10.58-2.48c2.65-1.65,3.97-3.98,3.97-6.98s-1.33-5.47-3.97-7.12c-2.65-1.65-6.18-2.47-10.58-2.47s-8.08.82-10.72,2.47ZM63.75,73.81v29.4h-20.1v-29.4h20.1ZM107.1,82.66v13.65h-29.55v-13.65h29.55ZM122.85,4.36v102.3h-20.25V4.36h20.25Z" style="stroke-width:0px;"/></svg>