<?xml version="1.0" encoding="UTF-8"?><svg id="Layer_1" xmlns="http://www.w3.org/2000/svg" viewBox="0 0 131.73 137.28"><path d="M66.41,9.75c5.6,2.7,10,6.48,13.2,11.33,3.2,4.85,4.8,10.33,4.8,16.42s-1.6,11.6-4.8,16.5c-3.2,4.9-7.6,8.73-13.2,11.48-5.6,2.75-11.9,4.12-18.9,4.12s-13.3-1.38-18.9-4.12c-5.6-2.75-10-6.57-13.2-11.48-3.2-4.9-4.8-10.4-4.8-16.5s1.6-11.57,4.8-16.42c3.2-4.85,7.6-8.62,13.2-11.33,5.6-2.7,11.9-4.05,18.9-4.05s13.3,1.35,18.9,4.05ZM38.66,24.08c-2.6,1.25-4.65,3.03-6.15,5.32-1.5,2.3-2.25,5-2.25,8.1s.75,5.98,2.25,8.33,3.53,4.12,6.08,5.32c2.55,1.2,5.52,1.8,8.92,1.8s6.38-.6,8.93-1.8c2.55-1.2,4.57-2.97,6.07-5.32s2.25-5.12,2.25-8.33-.75-5.8-2.25-8.1c-1.5-2.3-3.55-4.07-6.15-5.32-2.6-1.25-5.55-1.88-8.85-1.88s-6.25.62-8.85,1.88ZM50.96,78.6v12.15h50.25v-12.15h19.95v55.2H31.01v-55.2h19.95ZM50.96,117.9h50.25v-11.7h-50.25v11.7ZM121.16.3v72.45h-20.25V.3h20.25Z" style="stroke-width:0px;"/></svg>