<?xml version="1.0" encoding="UTF-8"?><svg id="Layer_1" xmlns="http://www.w3.org/2000/svg" viewBox="0 0 130.65 145.73"><path d="M64.95,13.96c5.6,2.7,10,6.48,13.2,11.32,3.2,4.85,4.8,10.33,4.8,16.43s-1.6,11.6-4.8,16.5c-3.2,4.9-7.6,8.73-13.2,11.48-5.6,2.75-11.9,4.12-18.9,4.12s-13.3-1.37-18.9-4.12c-5.6-2.75-10-6.57-13.2-11.48-3.2-4.9-4.8-10.4-4.8-16.5s1.6-11.57,4.8-16.43c3.2-4.85,7.6-8.62,13.2-11.32,5.6-2.7,11.9-4.05,18.9-4.05s13.3,1.35,18.9,4.05ZM37.2,28.29c-2.6,1.25-4.65,3.03-6.15,5.33-1.5,2.3-2.25,5-2.25,8.1s.75,5.98,2.25,8.32c1.5,2.35,3.53,4.12,6.08,5.33s5.52,1.8,8.92,1.8,6.38-.6,8.93-1.8c2.55-1.2,4.57-2.97,6.07-5.33,1.5-2.35,2.25-5.12,2.25-8.32s-.75-5.8-2.25-8.1c-1.5-2.3-3.55-4.07-6.15-5.33-2.6-1.25-5.55-1.88-8.85-1.88s-6.25.63-8.85,1.88ZM49.5,82.81v12.15h50.25v-12.15h19.95v55.2H29.55v-55.2h19.95ZM49.5,122.11h50.25v-11.7h-50.25v11.7ZM119.7,4.51v72.45h-20.25V4.51h20.25Z" style="stroke-width:0px;"/></svg>