<?xml version="1.0" encoding="UTF-8"?><svg id="Layer_1" xmlns="http://www.w3.org/2000/svg" viewBox="0 0 146.4 137.28"><path d="M41.55,22.2v13.65c0,10.7-1,20.85-3,30.45-2,9.6-5.23,18.25-9.67,25.95-4.45,7.7-10.12,13.7-17.02,18L0,95.4c6.2-4,11.27-9.17,15.23-15.53,3.95-6.35,6.77-13.22,8.48-20.62,1.7-7.4,2.55-15.2,2.55-23.4v-13.65h15.3ZM65.1,13.35v16.35H4.95V13.35h60.15ZM45.9,22.2v13.65c0,8,.85,15.55,2.55,22.65,1.7,7.1,4.45,13.6,8.25,19.5,3.8,5.9,8.85,10.7,15.15,14.4l-11.85,14.55c-6.9-4.1-12.52-9.75-16.88-16.95-4.35-7.2-7.5-15.42-9.45-24.67-1.95-9.25-2.92-19.07-2.92-29.47v-13.65h15.15ZM77.85,46.05v16.35h-22.2v-16.35h22.2ZM91.2,2.25v126.9h-18.75V2.25h18.75ZM118.8,0v135.15h-19.05V0h19.05Z" style="stroke-width:0px;"/></svg>